<?xml version="1.0" encoding="UTF-8"?>
<svg version="1.1" viewBox="0 0 256 256" xmlns="http://www.w3.org/2000/svg">
 <defs>
  <clipPath>
   <path d="m12.287 54h39.425v-48h-39.425v48z"/>
  </clipPath>
 </defs>
 <g transform="translate(0 -796.36)">
  <g transform="matrix(5.3333 0 0 5.3333 0 -4560.2)">
   <path d="m48 1028.4c0 13.255-10.745 24-24 24s-24-10.745-24-24 10.745-24 24-24 24 10.745 24 24" fill="#76c2af"/>
   <g transform="matrix(.75 0 0 -.75 0 1052.4)"></g>
   <path transform="translate(0 1004.4)" d="m23.475 5.8711c-4.6726 0-8.459 3.7864-8.459 8.459 3e-6 0.8149 0.37975 3.0876 1.2012 4.3457 0 0 3.0861 2.823 7.25 6.541-3.6535 0.02761-7.6255 0.04392-10.645 2.0293-2.1475 1.4123-3.7681 3.9026-4.2676 6.4238-0.39503 1.9938-1.9711 4.4492 1.1836 5.9805 1.2896 0.62591 5.6517 4.1502 10.654 8.0781 1.177 0.17748 2.3809 0.27148 3.6074 0.27148 12.737 0 23.151-9.9244 23.945-22.461-9.0759-8.7474-20.535-18.699-20.535-18.699-1.1776-0.6615-3.2213-0.96875-3.9355-0.96875z" fill-opacity=".19608"/>
   <circle cx="23.475" cy="1018.7" r="8.4604" fill="#fff"/>
   <path d="m39.605 1038c0.31999 2.0158 1.7006 4.4269-1.3864 5.9641-3.087 1.5371-9.2993 2.4964-14.139 2.4964s-11.187-0.9475-14.342-2.4787c-3.1547-1.5313-1.5782-3.988-1.1832-5.9818 0.49952-2.5212 2.1198-5.0099 4.2672-6.4222 3.1864-2.0954 7.4445-2.0018 11.258-2.0382 3.8967-0.037 8.3113-0.3174 11.541 1.8629 2.1293 1.4373 3.5813 4.0602 3.984 6.5975z" fill="#fff"/>
   <path d="m24 1046.3-3.3676-4.7756 3.3676-8.058 3.3676 8.058zm0-11.965-3.3676-4.7756h6.7353z" fill="#4f5d73"/>
  </g>
 </g>
</svg>
